<?xml version="1.0" encoding="utf-8"?>
<!-- Generator: Adobe Illustrator 25.0.0, SVG Export Plug-In . SVG Version: 6.00 Build 0)  -->
<svg version="1.1" id="Capa_1" xmlns="http://www.w3.org/2000/svg" xmlns:xlink="http://www.w3.org/1999/xlink" x="0px" y="0px"
	 viewBox="0 0 470 340" style="enable-background:new 0 0 470 340;" xml:space="preserve">
<style type="text/css">
	.st0{fill:url(#SVGID_1_);}
	.st1{opacity:0.8;clip-path:url(#SVGID_3_);fill:url(#SVGID_4_);}
	.st2{opacity:0.5;clip-path:url(#SVGID_3_);}
	.st3{opacity:0.5;}
	.st4{clip-path:url(#SVGID_3_);fill:url(#SVGID_7_);}
	.st5{clip-path:url(#SVGID_3_);fill:url(#SVGID_8_);}
	.st6{opacity:0.5;clip-path:url(#SVGID_3_);fill:url(#SVGID_9_);}
	.st7{clip-path:url(#SVGID_3_);}
	.st8{fill:url(#SVGID_10_);}
	.st9{clip-path:url(#SVGID_3_);fill:url(#SVGID_11_);}
	.st10{clip-path:url(#SVGID_13_);fill:url(#SVGID_14_);}
	.st11{fill:#6666CC;}
	.st12{opacity:0.6;}
	.st13{clip-path:url(#SVGID_16_);fill:#59EBF7;}
	.st14{opacity:0.4;}
	.st15{clip-path:url(#SVGID_18_);fill:#FFFFFF;}
	.st16{fill:#E83126;}
	.st17{fill:#4D4DA0;}
	.st18{fill:#FFC779;}
	.st19{fill:#36747A;}
	.st20{opacity:0.8;fill:url(#SVGID_19_);}
	.st21{opacity:0.8;fill:url(#SVGID_20_);}
	.st22{fill:url(#SVGID_21_);}
</style>
<g>
	
		<radialGradient id="SVGID_1_" cx="-1140.4158" cy="523.9315" r="955.1775" gradientTransform="matrix(0.9451 -0.3268 -0.3268 -0.9451 1618.4269 155.7696)" gradientUnits="userSpaceOnUse">
		<stop  offset="0" style="stop-color:#5DCAB6"/>
		<stop  offset="0.459" style="stop-color:#10EBDE"/>
		<stop  offset="0.5518" style="stop-color:#00F2E6"/>
		<stop  offset="0.6352" style="stop-color:#2AF5E3"/>
		<stop  offset="0.7595" style="stop-color:#63F9DF"/>
		<stop  offset="0.8662" style="stop-color:#8DFCDC"/>
		<stop  offset="0.9498" style="stop-color:#A7FEDA"/>
		<stop  offset="1" style="stop-color:#B0FFD9"/>
	</radialGradient>
	<path class="st0" d="M287.32,138.73c15.65,14.54,26.82,33.51,36.47,53.01c4.58,9.25,9.76,19.4,19.34,23.26
		c8.69,3.5,19.01,0.56,26.16-5.49c7.15-6.05,11.56-14.73,14.66-23.57c7.22-20.57,8.22-42.76,8.03-64.55
		c-0.14-16.5-0.93-33.13-4.88-49.16c-3.94-16.03-11.22-31.54-22.89-43.22C343.99,8.79,313.28,2.63,284.72,4.24
		c-18.83,1.06-37.31,5.04-55.73,8.89c-18.54,3.86-35.77,7.66-53.36,14.96c-6.98,2.9-14.18,6.42-18.37,12.71
		c-5.51,8.27-4.36,19.71,0.72,28.24c5.09,8.53,13.47,14.59,22.16,19.4c26.84,14.83,57.48,20.78,84.8,34.6
		C273.35,127.29,280.73,132.62,287.32,138.73z"/>
	<g>
		<defs>
			<path id="SVGID_2_" d="M387.01,181.91c0-85.33-69.17-154.51-154.51-154.51S78,96.58,78,181.91
				c0,85.33,69.17,154.51,154.51,154.51S387.01,267.25,387.01,181.91z"/>
		</defs>
		<clipPath id="SVGID_3_">
			<use xlink:href="#SVGID_2_"  style="overflow:visible;"/>
		</clipPath>
		
			<radialGradient id="SVGID_4_" cx="860.1414" cy="217.6647" r="79.9925" gradientTransform="matrix(-1 0 0 1 1069.1641 0)" gradientUnits="userSpaceOnUse">
			<stop  offset="0" style="stop-color:#00B1F9"/>
			<stop  offset="0.5518" style="stop-color:#00F2E6"/>
			<stop  offset="0.6352" style="stop-color:#2AF5E3"/>
			<stop  offset="0.7595" style="stop-color:#63F9DF"/>
			<stop  offset="0.8662" style="stop-color:#8DFCDC"/>
			<stop  offset="0.9498" style="stop-color:#A7FEDA"/>
			<stop  offset="1" style="stop-color:#B0FFD9"/>
		</radialGradient>
		<path class="st1" d="M214.32,224.5l0.61-0.44c0.57-0.41,0.71-1.21,0.3-1.78l-54.28-76.04c-0.41-0.57-1.21-0.71-1.78-0.3
			l-0.61,0.44c-0.57,0.41-0.71,1.21-0.3,1.78l54.28,76.04C212.94,224.78,213.74,224.91,214.32,224.5z"/>
		<g class="st2">
			<defs>
				<path id="SVGID_5_" class="st3" d="M192.37,375.36c7.95,1.87,16.21,2.59,24.35,2.24c20.32-0.89,39.98-8.06,57.74-17.97
					c31.69-17.68,57.98-44.03,78.86-73.71c22.28-31.66,39.06-68.65,39.32-107.36c0.26-38.71-18.59-78.97-52.92-96.86
					c-15.41-8.03-33.28-11.27-50.53-9.16c-15.64,1.92-31.24,8.6-41.08,20.9c-12.71,15.88-13.84,37.76-15.35,58.04
					c-2.24,30-6.58,60.01-15.85,88.63c-10.91,33.69-28.93,65.21-55.7,88.76c-11.21,9.87-13.03,19.7-1.1,30.27
					C169.25,367.23,180.47,372.57,192.37,375.36z"/>
			</defs>
			<clipPath id="SVGID_6_">
				<use xlink:href="#SVGID_5_"  style="overflow:visible;"/>
			</clipPath>
		</g>
		
			<radialGradient id="SVGID_7_" cx="172.2007" cy="777.855" r="441.3138" gradientTransform="matrix(0.9052 -0.425 -0.425 -0.9052 296.5723 1200.0186)" gradientUnits="userSpaceOnUse">
			<stop  offset="0" style="stop-color:#5DCAB6"/>
			<stop  offset="0.459" style="stop-color:#10D1D0"/>
			<stop  offset="0.5518" style="stop-color:#00D3D5"/>
			<stop  offset="0.6352" style="stop-color:#2ADED6"/>
			<stop  offset="0.7595" style="stop-color:#63ECD7"/>
			<stop  offset="0.8662" style="stop-color:#8DF6D8"/>
			<stop  offset="0.9498" style="stop-color:#A7FDD9"/>
			<stop  offset="1" style="stop-color:#B0FFD9"/>
		</radialGradient>
		<path class="st4" d="M277.94,189.16c7.07,1.08,13.73,3.76,18.76,8.76c9.93,9.88,10.57,26.35,5.08,39.23
			c-8.06,18.9-25.85,30.38-39.69,44.64c-15.61,16.08-16.04,43.43-35.85,55.63c-12.21,7.51-27.99,5.58-41.63,1.16
			c-22.52-7.29-42.65-20.45-61.73-34.46c-29.2-21.43-57.23-46.55-63.49-84.04c-1.36-8.17-1.51-17.2,3.2-24.02
			c5.37-7.78,15.88-10.6,25.25-9.38c9.37,1.21,17.94,5.74,26.31,10.12c17.12,8.95,35.14,17.77,54.45,18.26
			c32.67,0.82,61.48-22.12,93.93-26.02C267.58,188.44,272.86,188.39,277.94,189.16z"/>
		
			<radialGradient id="SVGID_8_" cx="665.4691" cy="804.2733" r="189.5826" gradientTransform="matrix(-0.7952 -0.6063 -0.6063 0.7952 1169.5885 -132.7376)" gradientUnits="userSpaceOnUse">
			<stop  offset="0" style="stop-color:#5DCAB6"/>
			<stop  offset="0.459" style="stop-color:#10EBDE"/>
			<stop  offset="0.5518" style="stop-color:#00F2E6"/>
			<stop  offset="0.5577" style="stop-color:#02F2E6"/>
			<stop  offset="0.7086" style="stop-color:#3BECE0"/>
			<stop  offset="0.8378" style="stop-color:#65E8DC"/>
			<stop  offset="0.9391" style="stop-color:#7FE6DA"/>
			<stop  offset="1" style="stop-color:#88E5D9"/>
		</radialGradient>
		<path class="st5" d="M294.45,64.87C288,51.4,277.12,38.99,260.73,40.1c-10.62,0.72-20.73,8.66-22.65,19.12
			c-1.43,7.78,1.49,15.73,1.09,23.62c-0.52,10.19-6.53,19.35-13.67,26.64c-7.14,7.29-15.56,13.25-22.69,20.54
			c-3.13,3.2-6.09,6.8-7.34,11.1c-1.19,4.09-0.74,8.5,0.25,12.65c0.96,4.02,2.48,8.03,5.3,11.05c2.56,2.74,6.05,4.49,9.69,5.39
			c9.99,2.46,20.52-1.33,29.31-6.68c8.71-5.3,16.42-12.78,25.74-17c9.83-4.45,21.03-5.99,31.72-6.22c5.7-0.13,11.54-0.43,16.79-2.67
			c5.25-2.23,9.85-6.8,10.59-12.45c0.4-3.09-0.36-6.24-1.62-9.09c-2.8-6.35-7.89-11.35-11.95-16.98
			C303.8,88.7,299.96,76.36,294.45,64.87z"/>
		
			<radialGradient id="SVGID_9_" cx="1253.5692" cy="1190.7302" r="40.4201" gradientTransform="matrix(-0.5311 -0.5311 -0.4002 0.4002 1339.1248 319.2503)" gradientUnits="userSpaceOnUse">
			<stop  offset="0" style="stop-color:#009EFF"/>
			<stop  offset="0.0184" style="stop-color:#0AA2FF"/>
			<stop  offset="0.134" style="stop-color:#42B7FF"/>
			<stop  offset="0.253" style="stop-color:#75CAFF"/>
			<stop  offset="0.3727" style="stop-color:#9FDBFF"/>
			<stop  offset="0.4935" style="stop-color:#C2E8FF"/>
			<stop  offset="0.6155" style="stop-color:#DDF2FF"/>
			<stop  offset="0.7392" style="stop-color:#F0F9FF"/>
			<stop  offset="0.8659" style="stop-color:#FBFEFF"/>
			<stop  offset="1" style="stop-color:#FFFFFF"/>
		</radialGradient>
		<path class="st6" d="M218.29,151.48c8.94-8.93,6.57-25.79-5.29-37.64c-11.86-11.85-28.71-14.22-37.64-5.29
			c-8.93,8.93-6.57,25.79,5.29,37.64C192.5,158.04,209.35,160.41,218.29,151.48z"/>
		<g class="st7">
			
				<radialGradient id="SVGID_10_" cx="509.459" cy="-811.7708" r="90.9596" gradientTransform="matrix(-0.6207 0.7841 0.7841 0.6207 1129.2704 132.8452)" gradientUnits="userSpaceOnUse">
				<stop  offset="0" style="stop-color:#00B1F9"/>
				<stop  offset="0.5518" style="stop-color:#00F2E6"/>
				<stop  offset="0.6352" style="stop-color:#2AF5E3"/>
				<stop  offset="0.7595" style="stop-color:#63F9DF"/>
				<stop  offset="0.8662" style="stop-color:#8DFCDC"/>
				<stop  offset="0.9498" style="stop-color:#A7FEDA"/>
				<stop  offset="1" style="stop-color:#B0FFD9"/>
			</radialGradient>
			<path class="st8" d="M222.2,69.78c1.5-3.66-3.05-10.93-13.42-12.89c-9.9-2.14-25.61,1.02-35.47,14.16
				c-10.53,12.61-10,28.63-5.65,37.78c4.29,9.64,12.41,12.41,15.63,10.11c6.38-6.04,7.81-20.48,15.49-27.72
				C204.05,82.08,217.78,77.38,222.2,69.78z"/>
		</g>
		
			<radialGradient id="SVGID_11_" cx="838.4765" cy="311.8282" r="38.0579" gradientTransform="matrix(-1 0 0 1 1069.1641 0)" gradientUnits="userSpaceOnUse">
			<stop  offset="0" style="stop-color:#00B1F9"/>
			<stop  offset="0.5518" style="stop-color:#00F2E6"/>
			<stop  offset="0.6352" style="stop-color:#2AF5E3"/>
			<stop  offset="0.7595" style="stop-color:#63F9DF"/>
			<stop  offset="0.8662" style="stop-color:#8DFCDC"/>
			<stop  offset="0.9498" style="stop-color:#A7FEDA"/>
			<stop  offset="1" style="stop-color:#B0FFD9"/>
		</radialGradient>
		<path class="st9" d="M253.31,309.42c0-2.6-2.11-4.71-4.71-4.71c-2.6,0-4.71,2.11-4.71,4.71s2.11,4.71,4.71,4.71
			C251.2,314.13,253.31,312.02,253.31,309.42z"/>
		<g class="st7">
			<g>
				<defs>
					
						<rect id="SVGID_12_" x="237.04" y="230.83" transform="matrix(0.9577 -0.2878 0.2878 0.9577 -69.4554 83.2451)" width="22.63" height="93.97"/>
				</defs>
				<clipPath id="SVGID_13_">
					<use xlink:href="#SVGID_12_"  style="overflow:visible;"/>
				</clipPath>
				
					<linearGradient id="SVGID_14_" gradientUnits="userSpaceOnUse" x1="-282.6577" y1="928.9943" x2="-281.5806" y2="928.9943" gradientTransform="matrix(4.8487 -89.0504 -89.0504 -4.8487 84343.5781 -20340.5723)">
					<stop  offset="0" style="stop-color:#AC91DB"/>
					<stop  offset="0.4852" style="stop-color:#AC91DB"/>
					<stop  offset="0.6202" style="stop-color:#A98FDA"/>
					<stop  offset="0.7377" style="stop-color:#9E88D8"/>
					<stop  offset="0.8486" style="stop-color:#8C7DD4"/>
					<stop  offset="0.9548" style="stop-color:#736ECF"/>
					<stop  offset="1" style="stop-color:#6666CC"/>
				</linearGradient>
				<polygon class="st10" points="218.76,325.78 224.14,226.92 277.95,229.85 272.57,328.71 				"/>
			</g>
			<path class="st11" d="M287.53,138.82c-12.33-41-55.56-64.25-96.56-51.93c-41,12.32-64.25,55.56-51.93,96.56
				c12.32,41,55.56,64.25,96.56,51.93C276.6,223.05,299.86,179.82,287.53,138.82 M231.05,220.23c-32.64,9.81-67.05-8.69-76.86-41.33
				c-9.81-32.64,8.69-67.06,41.34-76.87c32.64-9.81,67.05,8.7,76.86,41.34C282.19,176.01,263.69,210.42,231.05,220.23"/>
			<g class="st12">
				<g>
					<defs>
						<rect id="SVGID_15_" x="151.56" y="99.4" width="123.46" height="123.45"/>
					</defs>
					<clipPath id="SVGID_16_">
						<use xlink:href="#SVGID_15_"  style="overflow:visible;"/>
					</clipPath>
					<path class="st13" d="M272.38,143.37c9.81,32.64-8.69,67.06-41.33,76.86c-32.64,9.81-67.05-8.69-76.86-41.33
						c-9.81-32.64,8.69-67.05,41.34-76.86C228.16,92.22,262.58,110.73,272.38,143.37"/>
				</g>
			</g>
			<g class="st14">
				<g>
					<defs>
						<rect id="SVGID_17_" x="158.54" y="99.42" width="99.16" height="122.38"/>
					</defs>
					<clipPath id="SVGID_18_">
						<use xlink:href="#SVGID_17_"  style="overflow:visible;"/>
					</clipPath>
					<path class="st15" d="M181.13,213.79l58.36-108.52c-9.98-4.69-21.23-6.71-32.64-5.51l-48.31,89.84
						C163.82,199.78,171.72,208.05,181.13,213.79"/>
					<path class="st15" d="M257.7,118.29c-3.72-3.85-7.91-7.2-12.45-9.95L186.87,216.9c4.8,2.27,9.89,3.92,15.16,4.9L257.7,118.29z"
						/>
				</g>
			</g>
			<path class="st16" d="M283.42,343.88l-27.88,8.38c-1.6,0.48-3.28-0.43-3.76-2.02L229,274.47c-0.48-1.59,0.43-3.28,2.02-3.76
				l27.88-8.38c1.6-0.48,3.28,0.43,3.76,2.02l22.77,75.76C285.92,341.71,285.01,343.4,283.42,343.88"/>
			<path class="st17" d="M283.42,343.88l-27.88,8.38c-1.6,0.48-3.28-0.43-3.76-2.02L229,274.47c-0.48-1.59,0.43-3.28,2.02-3.76
				l27.88-8.38c1.6-0.48,3.28,0.43,3.76,2.02l22.77,75.76C285.92,341.71,285.01,343.4,283.42,343.88"/>
			<path class="st18" d="M171.12,421.86c1.68,2.94,51.95,34.81,55.92,32.54c7.72-4.43,131.49-226.43,131.12-234.58
				c-0.37-8.14-48.93-31.81-54.28-30.14C298.53,191.36,170.36,420.54,171.12,421.86"/>
			<path class="st19" d="M194.27,379.9c2.17,1.35,4.27,2.81,6.4,4.23c2.14,1.41,4.22,2.9,6.24,4.5c0.2,0.16,0.24,0.45,0.07,0.65
				c-0.14,0.18-0.38,0.23-0.57,0.13c-2.3-1.15-4.53-2.41-6.71-3.75c-2.19-1.33-4.4-2.62-6.54-4.01c-0.48-0.31-0.61-0.96-0.3-1.44
				C193.16,379.74,193.79,379.6,194.27,379.9"/>
			<path class="st19" d="M199.15,372.09c2.17,1.35,4.28,2.81,6.41,4.23c2.13,1.41,4.22,2.9,6.23,4.5c0.2,0.16,0.23,0.45,0.08,0.65
				c-0.14,0.17-0.38,0.22-0.57,0.12c-2.3-1.15-4.53-2.41-6.71-3.74c-2.19-1.33-4.4-2.62-6.54-4.02c-0.48-0.31-0.62-0.95-0.3-1.43
				C198.05,371.93,198.68,371.8,199.15,372.09"/>
			<path class="st19" d="M202.92,364.34c3.46,2.1,6.85,4.32,10.27,6.49c3.42,2.16,6.79,4.41,10.1,6.76
				c0.21,0.15,0.26,0.44,0.11,0.64c-0.14,0.19-0.39,0.24-0.59,0.14c-3.58-1.9-7.1-3.91-10.57-6c-3.47-2.08-6.97-4.12-10.4-6.27
				c-0.49-0.3-0.63-0.94-0.33-1.43C201.81,364.2,202.44,364.05,202.92,364.34"/>
			<path class="st19" d="M207.8,356.72c2.17,1.35,4.27,2.81,6.4,4.23c2.14,1.41,4.22,2.9,6.23,4.5c0.2,0.16,0.23,0.45,0.07,0.65
				c-0.14,0.17-0.38,0.22-0.57,0.12c-2.3-1.15-4.53-2.41-6.71-3.75c-2.19-1.33-4.4-2.62-6.54-4.01c-0.48-0.32-0.61-0.95-0.3-1.44
				C206.69,356.56,207.32,356.42,207.8,356.72"/>
			<path class="st19" d="M212.74,347.68c2.17,1.35,4.27,2.81,6.4,4.23c2.14,1.41,4.22,2.9,6.23,4.5c0.2,0.16,0.23,0.45,0.07,0.65
				c-0.14,0.18-0.38,0.22-0.57,0.13c-2.3-1.15-4.54-2.41-6.71-3.75c-2.19-1.33-4.4-2.62-6.54-4.01c-0.48-0.31-0.61-0.96-0.3-1.44
				C211.63,347.52,212.27,347.38,212.74,347.68"/>
			<path class="st19" d="M217.54,338.39c2.17,1.35,4.28,2.81,6.4,4.23c2.13,1.41,4.22,2.9,6.23,4.5c0.2,0.16,0.23,0.45,0.07,0.65
				c-0.14,0.18-0.38,0.22-0.57,0.13c-2.3-1.15-4.53-2.41-6.71-3.75c-2.18-1.33-4.4-2.62-6.54-4.01c-0.48-0.31-0.61-0.95-0.3-1.43
				C216.44,338.23,217.07,338.1,217.54,338.39"/>
			<path class="st19" d="M222.43,330.59c2.17,1.35,4.28,2.81,6.4,4.23c2.13,1.41,4.22,2.9,6.23,4.5c0.2,0.16,0.23,0.45,0.08,0.65
				c-0.14,0.18-0.38,0.23-0.57,0.13c-2.3-1.15-4.53-2.41-6.71-3.75c-2.19-1.33-4.4-2.62-6.54-4.01c-0.48-0.31-0.62-0.96-0.3-1.43
				C221.32,330.43,221.95,330.29,222.43,330.59"/>
			<path class="st19" d="M227.57,320.76c3.46,2.1,6.85,4.32,10.26,6.49c3.42,2.16,6.8,4.41,10.1,6.76c0.21,0.15,0.26,0.44,0.11,0.64
				c-0.13,0.19-0.39,0.25-0.59,0.14c-3.59-1.9-7.1-3.91-10.57-6c-3.47-2.08-6.97-4.12-10.4-6.27c-0.49-0.3-0.63-0.94-0.33-1.43
				C226.46,320.61,227.09,320.47,227.57,320.76"/>
			<path class="st19" d="M232.45,313.13c2.17,1.35,4.28,2.81,6.4,4.23c2.14,1.41,4.22,2.9,6.23,4.5c0.2,0.16,0.24,0.45,0.08,0.65
				c-0.14,0.17-0.38,0.22-0.57,0.13c-2.3-1.15-4.53-2.41-6.71-3.75c-2.19-1.33-4.4-2.62-6.54-4.01c-0.48-0.32-0.61-0.96-0.3-1.44
				C231.34,312.98,231.97,312.84,232.45,313.13"/>
			<path class="st19" d="M237.39,304.09c2.17,1.35,4.27,2.81,6.41,4.23c2.13,1.41,4.22,2.9,6.23,4.5c0.2,0.16,0.23,0.45,0.08,0.65
				c-0.14,0.17-0.38,0.22-0.57,0.13c-2.3-1.15-4.53-2.41-6.71-3.75c-2.19-1.33-4.4-2.61-6.54-4.01c-0.48-0.32-0.62-0.95-0.3-1.44
				C236.29,303.94,236.92,303.8,237.39,304.09"/>
			<path class="st19" d="M242.19,294.81c2.17,1.35,4.27,2.81,6.4,4.23c2.14,1.41,4.22,2.9,6.23,4.5c0.2,0.16,0.24,0.45,0.08,0.65
				c-0.14,0.17-0.38,0.22-0.57,0.13c-2.3-1.15-4.53-2.41-6.71-3.75c-2.19-1.33-4.4-2.62-6.54-4.01c-0.48-0.32-0.61-0.95-0.3-1.43
				C241.09,294.65,241.71,294.51,242.19,294.81"/>
			<path class="st19" d="M247.08,287c2.17,1.35,4.27,2.81,6.4,4.23c2.13,1.41,4.22,2.9,6.23,4.5c0.2,0.16,0.23,0.45,0.08,0.65
				c-0.14,0.17-0.38,0.22-0.57,0.13c-2.3-1.15-4.53-2.41-6.71-3.75c-2.18-1.33-4.4-2.62-6.54-4.01c-0.48-0.31-0.61-0.95-0.3-1.44
				C245.97,286.84,246.6,286.71,247.08,287"/>
			<path class="st19" d="M252.82,276.83c3.46,2.1,6.85,4.32,10.27,6.49c3.42,2.16,6.79,4.41,10.1,6.76
				c0.21,0.15,0.26,0.44,0.11,0.64c-0.13,0.19-0.39,0.25-0.59,0.14c-3.58-1.9-7.1-3.91-10.57-6c-3.47-2.08-6.97-4.12-10.4-6.27
				c-0.49-0.31-0.63-0.94-0.33-1.43C251.71,276.69,252.34,276.54,252.82,276.83"/>
			<path class="st19" d="M257.7,269.2c2.17,1.35,4.28,2.81,6.41,4.23c2.13,1.41,4.22,2.9,6.23,4.5c0.2,0.16,0.23,0.45,0.07,0.65
				c-0.14,0.18-0.38,0.22-0.57,0.13c-2.3-1.15-4.53-2.41-6.71-3.75c-2.19-1.32-4.4-2.61-6.55-4.01c-0.48-0.31-0.61-0.96-0.3-1.44
				C256.59,269.05,257.22,268.91,257.7,269.2"/>
			<path class="st19" d="M262.64,260.17c2.17,1.35,4.27,2.82,6.4,4.23c2.14,1.41,4.22,2.9,6.23,4.5c0.2,0.16,0.23,0.45,0.08,0.65
				c-0.14,0.18-0.38,0.22-0.57,0.13c-2.3-1.15-4.53-2.41-6.71-3.75c-2.19-1.33-4.4-2.62-6.54-4.01c-0.48-0.31-0.61-0.96-0.3-1.44
				C261.53,260.01,262.16,259.87,262.64,260.17"/>
			<path class="st19" d="M267.44,250.88c2.17,1.35,4.27,2.81,6.41,4.23c2.14,1.41,4.22,2.9,6.23,4.5c0.2,0.16,0.23,0.45,0.07,0.65
				c-0.14,0.18-0.38,0.23-0.57,0.13c-2.3-1.15-4.54-2.41-6.71-3.75c-2.19-1.33-4.4-2.61-6.54-4.01c-0.48-0.31-0.61-0.95-0.3-1.43
				C266.34,250.72,266.97,250.59,267.44,250.88"/>
			<path class="st19" d="M272.33,243.07c2.17,1.35,4.27,2.81,6.4,4.23c2.14,1.41,4.22,2.9,6.23,4.5c0.2,0.16,0.23,0.45,0.07,0.65
				c-0.14,0.17-0.38,0.22-0.57,0.13c-2.3-1.15-4.53-2.41-6.71-3.74c-2.19-1.33-4.4-2.62-6.54-4.02c-0.48-0.31-0.61-0.95-0.3-1.43
				C271.22,242.92,271.85,242.78,272.33,243.07"/>
			<path class="st19" d="M277.77,234.7c3.46,2.1,6.85,4.32,10.26,6.49c3.42,2.16,6.79,4.41,10.1,6.76c0.21,0.15,0.26,0.44,0.11,0.64
				c-0.14,0.19-0.39,0.25-0.59,0.14c-3.58-1.9-7.1-3.91-10.57-6c-3.47-2.08-6.97-4.12-10.4-6.27c-0.49-0.31-0.63-0.95-0.33-1.43
				C276.66,234.56,277.29,234.41,277.77,234.7"/>
			<path class="st19" d="M282.65,227.08c2.17,1.35,4.27,2.81,6.4,4.23c2.13,1.41,4.22,2.9,6.24,4.5c0.2,0.16,0.23,0.45,0.07,0.65
				c-0.14,0.18-0.38,0.22-0.57,0.13c-2.3-1.15-4.53-2.41-6.71-3.75c-2.19-1.33-4.4-2.62-6.54-4.01c-0.48-0.31-0.61-0.95-0.3-1.43
				C281.54,226.92,282.17,226.78,282.65,227.08"/>
			<path class="st19" d="M287.59,218.04c2.17,1.35,4.27,2.81,6.4,4.23c2.14,1.41,4.22,2.9,6.23,4.5c0.2,0.16,0.23,0.45,0.07,0.65
				c-0.14,0.17-0.38,0.22-0.57,0.13c-2.3-1.15-4.53-2.41-6.71-3.75c-2.19-1.33-4.4-2.61-6.54-4.01c-0.48-0.31-0.61-0.95-0.3-1.43
				C286.49,217.88,287.12,217.74,287.59,218.04"/>
			<path class="st19" d="M292.39,208.75c2.17,1.35,4.27,2.81,6.41,4.23c2.13,1.41,4.21,2.9,6.23,4.5c0.2,0.16,0.23,0.45,0.07,0.65
				c-0.14,0.18-0.38,0.22-0.57,0.13c-2.3-1.15-4.53-2.41-6.71-3.75c-2.18-1.33-4.4-2.62-6.54-4.01c-0.48-0.31-0.61-0.96-0.3-1.44
				C291.29,208.59,291.92,208.45,292.39,208.75"/>
			<path class="st19" d="M297.28,200.94c2.17,1.35,4.28,2.81,6.41,4.23c2.13,1.41,4.22,2.9,6.23,4.5c0.2,0.16,0.23,0.45,0.07,0.65
				c-0.14,0.18-0.38,0.22-0.57,0.12c-2.3-1.15-4.53-2.41-6.71-3.74c-2.19-1.33-4.4-2.62-6.54-4.02c-0.48-0.31-0.61-0.96-0.3-1.44
				C296.17,200.78,296.81,200.65,297.28,200.94"/>
		</g>
	</g>
	
		<radialGradient id="SVGID_19_" cx="786.7166" cy="72.8463" r="121.1151" gradientTransform="matrix(-1 0 0 1 1069.1641 0)" gradientUnits="userSpaceOnUse">
		<stop  offset="0" style="stop-color:#00B1F9"/>
		<stop  offset="0.5518" style="stop-color:#00F2E6"/>
		<stop  offset="0.6352" style="stop-color:#2AF5E3"/>
		<stop  offset="0.7595" style="stop-color:#63F9DF"/>
		<stop  offset="0.8662" style="stop-color:#8DFCDC"/>
		<stop  offset="0.9498" style="stop-color:#A7FEDA"/>
		<stop  offset="1" style="stop-color:#B0FFD9"/>
	</radialGradient>
	<path class="st20" d="M354.43,65.17c0-8.28-6.72-15-14.99-15c-8.28,0-15,6.71-15,15s6.71,15,15,15
		C347.71,80.17,354.43,73.45,354.43,65.17z"/>
</g>
<radialGradient id="SVGID_20_" cx="1032.3616" cy="109.6843" r="158.5851" gradientTransform="matrix(-1 0 0 1 1069.1641 0)" gradientUnits="userSpaceOnUse">
	<stop  offset="0" style="stop-color:#00B1F9"/>
	<stop  offset="0.5518" style="stop-color:#00F2E6"/>
	<stop  offset="0.6352" style="stop-color:#2AF5E3"/>
	<stop  offset="0.7595" style="stop-color:#63F9DF"/>
	<stop  offset="0.8662" style="stop-color:#8DFCDC"/>
	<stop  offset="0.9498" style="stop-color:#A7FEDA"/>
	<stop  offset="1" style="stop-color:#B0FFD9"/>
</radialGradient>
<path class="st21" d="M131.05,99.63c0-10.84-8.79-19.63-19.63-19.63c-10.84,0-19.64,8.79-19.64,19.63s8.79,19.64,19.64,19.64
	C122.26,119.27,131.05,110.48,131.05,99.63z"/>
<radialGradient id="SVGID_21_" cx="1006.7986" cy="169.4428" r="76.5557" gradientTransform="matrix(-1 0 0 1 1069.1641 0)" gradientUnits="userSpaceOnUse">
	<stop  offset="0" style="stop-color:#00B1F9"/>
	<stop  offset="0.5518" style="stop-color:#00F2E6"/>
	<stop  offset="0.6352" style="stop-color:#2AF5E3"/>
	<stop  offset="0.7595" style="stop-color:#63F9DF"/>
	<stop  offset="0.8662" style="stop-color:#8DFCDC"/>
	<stop  offset="0.9498" style="stop-color:#A7FEDA"/>
	<stop  offset="1" style="stop-color:#B0FFD9"/>
</radialGradient>
<path class="st22" d="M107.86,164.59c0-5.24-4.24-9.48-9.48-9.48c-5.23,0-9.48,4.24-9.48,9.48c0,5.23,4.25,9.48,9.48,9.48
	C103.62,174.07,107.86,169.83,107.86,164.59z"/>
</svg>
