<?xml version="1.0" encoding="utf-8"?>
<!-- Generator: Adobe Illustrator 25.0.0, SVG Export Plug-In . SVG Version: 6.00 Build 0)  -->
<svg version="1.1" id="Capa_1" xmlns="http://www.w3.org/2000/svg" xmlns:xlink="http://www.w3.org/1999/xlink" x="0px" y="0px"
	 viewBox="0 0 650 500" style="enable-background:new 0 0 650 500;" xml:space="preserve">
<style type="text/css">
	.st0{fill:#0A6C8E;}
	.st1{fill:#EEE6DE;}
	.st2{fill:#EFD5BF;}
	.st3{opacity:0.58;}
	.st4{fill:#E8D3C1;}
	.st5{fill:#2F53D3;}
	.st6{fill:#2A44C4;}
	.st7{opacity:0.46;fill:#FFFFFF;enable-background:new    ;}
	.st8{fill:#ED4C6F;}
	.st9{fill:#007F7C;}
	.st10{fill:#00AAAC;}
	.st11{fill:#00C1BC;}
	.st12{fill:#3E6AE5;}
	.st13{fill:#EE6D4A;}
	.st14{fill:#E0512F;}
	.st15{fill:#F48369;}
	.st16{fill:#F9A0A0;}
	.st17{fill:#FFBC00;}
	.st18{fill:#F7A500;}
	.st19{opacity:0.37;fill:#FFFFFF;enable-background:new    ;}
	.st20{fill:#CC8200;}
	.st21{fill:#EADBCE;}
	.st22{fill:#E5D1C3;}
	.st23{fill:#D6B8A1;}
	.st24{fill:#DBC2AD;}
	.st25{fill:#FCF7F2;}
</style>
<g>
	<g>
		<g>
			<g>
				<g>
					<polygon class="st0" points="213.38,384.96 227.22,383.7 231.7,389.07 					"/>
					<g>
						<g>
							<g>
								<g>
									<g>
										<g>
											<path class="st1" d="M272.89,74.35l-1.05,63.4c0,0,78.09,7.14,95.15,2.32c17.06-4.81,9.48-26.35,9.65-36.56
												s0.35-35.1-2.27-41s-15.58-3.09-31.47-1.49C327.02,62.61,272.89,74.35,272.89,74.35z"/>
										</g>
										<path class="st2" d="M376.65,103.51c0.17-10.21,0.35-35.1-2.27-41c-2.62-5.9-15.58-3.09-31.47-1.49
											c-15.89,1.6-70.01,13.33-70.01,13.33l-0.17,10.62c14.57-3.1,52.35-9.32,64.97-10.58c15.89-1.6,27.1-3.39,29.72,2.51
											c2.62,5.9,3.15,28.32,2.98,38.54c-0.1,5.62,2.16,14.67,1.36,22.48C382.46,130.65,376.5,112.6,376.65,103.51z"/>
										<g class="st3">
											<g>
												<path class="st4" d="M376.9,63.44L273.58,79.51C273.57,79.51,356.54,63.65,376.9,63.44z"/>
												<path class="st4" d="M378.99,99.87l-104.07,5.85C274.92,105.72,358.78,98.21,378.99,99.87z"/>
												<path class="st4" d="M379.05,95.82l-104.06,8.4C274.99,104.22,358.79,94.52,379.05,95.82z"/>
												<path class="st4" d="M379.09,93.37l-104.06,8.39C275.03,101.77,358.83,92.07,379.09,93.37z"/>
												<path class="st4" d="M379.11,90.15l-104,9.38C275.11,99.53,358.83,89.04,379.11,90.15z"/>
												<path class="st4" d="M379.08,85.86L275.24,97.31C275.24,97.31,358.78,85.16,379.08,85.86z"/>
												<path class="st4" d="M379.14,82.79L275.3,94.22C275.29,94.22,358.82,82.08,379.14,82.79z"/>
												<path class="st4" d="M379.15,79L275.39,91.4C275.39,91.4,358.82,78.48,379.15,79z"/>
												<path class="st4" d="M379.2,75.48L275.45,87.89C275.45,87.88,358.88,74.97,379.2,75.48z"/>
												<path class="st4" d="M379.19,71.88L275.55,85.34C275.55,85.34,358.86,71.56,379.19,71.88z"/>
												<path class="st4" d="M379.72,67.87L276.07,81.32C276.07,81.32,359.38,67.56,379.72,67.87z"/>
											</g>
											<g>
												<path class="st4" d="M375.4,133.41l-100.24-1.93C275.16,131.48,355.16,135.79,375.4,133.41z"/>
												<path class="st4" d="M378.52,102.91l-103.22,4.78C275.3,107.69,358.14,106.08,378.52,102.91z"/>
												<path class="st4" d="M378.43,106.16l-103.14,3.78C275.3,109.95,358.23,109.87,378.43,106.16z"/>
												<path class="st4" d="M378.27,110.49l-102.92,1.66C275.35,112.16,358.05,113.79,378.27,110.49z"/>
												<path class="st4" d="M378.24,113.59l-102.92,1.68C275.31,115.28,358.01,116.9,378.24,113.59z"/>
												<path class="st4" d="M378.12,117.41l-102.81,0.69C275.32,118.1,357.89,120.52,378.12,117.41z"/>
												<path class="st4" d="M378.07,120.96l-102.81,0.69C275.27,121.66,357.84,124.07,378.07,120.96z"/>
												<path class="st4" d="M377.96,124.6l-102.66-0.39C275.3,124.21,357.71,127.5,377.96,124.6z"/>
												<path class="st4" d="M378.35,128.58l-102.66-0.39C275.68,128.19,358.11,131.48,378.35,128.58z"/>
											</g>
											<path class="st4" d="M376.17,136.38l-103.13-0.72C273.04,135.66,355.9,138.85,376.17,136.38z"/>
										</g>
										<g>
											<g>
												<path class="st5" d="M366.85,53.57c0,0,170.15,20.58,183.99,24.78c13.82,4.2,9.97,43.49,7.37,55.66
													c-2.6,12.16-12.04,15.55-22.02,15.76c-9.97,0.2-185.74-3.66-185.74-3.66s23.78-3.72,26.6-20.85
													c2.81-17.13-0.69-51.35-1.4-57.15C374.97,62.29,366.85,53.57,366.85,53.57z"/>
											</g>
											<g>
												<path class="st6" d="M381.95,99.4c-0.1-2.59-0.18-5.1-0.22-7.44c-0.03-1.56-0.05-3.14-0.06-4.71
													c-0.11-12.28-0.23-24.97-7.66-30.79c-3.35-2.63-7.74-3.55-13.04-2.73c-15.23,2.36-79.58,14.24-93.46,16.81l-0.14,8.64
													c9.07-1.68,79.17-14.64,94.75-17.06c3.53-0.54,5.07,0.29,5.92,0.95c4.36,3.42,4.46,14.66,4.55,24.57
													c0.02,1.62,0.03,3.21,0.06,4.8c0.05,2.38,0.21,6.54,0.23,7.56c0.04,2.19,0.67,32.93-4.83,36.25
													c-6.09,2.71-56.22,4.24-101.65,1.29l-0.13,8.54c17.65,1.14,58.4,0.56,84.18,0.03c10.6-0.22,18.7-0.92,21.63-2.39
													C383.28,138.08,382.61,118.42,381.95,99.4z"/>
											</g>
										</g>
									</g>
								</g>
								<path class="st7" d="M548.37,80.6c0,0-115.09-14.91-133.94-16.95c-18.85-2.03-25.23-3.75-27.85-2.08
									c-2.61,1.66-1.79,17.61-0.36,19.96c1.42,2.36,13,2.46,25.69,3.01c12.69,0.55,136.46,8.15,140.05,8.32
									c3.59,0.16,3.02-5.35,1.79-7.58C552.53,83.04,550.97,80.94,548.37,80.6z"/>
							</g>
						</g>
						<g>
							<path class="st8" d="M265.03,208.79c0,0-9.03,21.94-9.06,40.16c-3.08-4.32-6.15-10.15-6.15-10.15l-10.43,8.59
								c0,0,7.07-40.48,15.45-52.68C263.21,182.52,265.03,208.79,265.03,208.79z"/>
							<g>
								<path class="st9" d="M574.01,215.03l-31.35,18.47l-259.73-4.67l-28.38-19.54c0,0,125.47-1.82,166.63-3.98
									C462.36,203.14,574.01,215.03,574.01,215.03z"/>
								<g>
									<g>
										<g>
											<g>
												<path class="st10" d="M575.2,148.92c0,0-307.17-4.29-318.42-3.27c-6.94,1.93-6.81,18.81-7.51,33.2
													c-0.69,14.39-1.37,28.12,5.28,30.42c6.64,2.3,314.41,5.81,319.44,5.75c5.04-0.06,8.66-9.32,9.5-24.4
													C584.36,175.56,586.57,149.07,575.2,148.92z"/>
											</g>
										</g>
									</g>
									<path class="st11" d="M575.13,153.44c0,0-167.54-3.02-220.3-3.96c-52.76-0.95-83.68-1.51-90.87-1.63
										c-7.19-0.13-9.69,2.91-10.36,8.36c-0.67,5.46,1.61,6.44,15.99,6.53s295.78,5.33,305.29,5.5S582.24,153.57,575.13,153.44z"
										/>
								</g>
							</g>
						</g>
						<g>
							<g>
								<g>
									<g>
										<g>
											<path class="st6" d="M399.42,442.19c0,0,201.24-34.4,216.27-38.46c15.03-4.07,20.34-46.15,3.53-51.73
												c-16.81-5.58-207.76-20.18-207.76-20.18l-222.74,8.16L399.42,442.19z"/>
										</g>
										<path class="st5" d="M615.7,403.73c-15.03,4.07-216.27,38.46-216.27,38.46l-113.56-57.74l339.56-27.6
											C634.19,369.54,628.44,400.27,615.7,403.73z"/>
									</g>
									<g>
										<path class="st1" d="M194,345.17c41.23,3.99,188.34,18.89,208.24,29.9c23.18,12.83,14.5,61.67-5.03,62.56
											c-15.82,0.72-152.7-29.64-204.13-41.2L194,345.17z"/>
									</g>
									<path class="st2" d="M391.15,390.22c-18.43-10.2-145.93-23.73-197.43-28.84l0.29-16.21
										c41.23,3.99,188.34,18.89,208.24,29.9c21.05,11.64,15.82,52.97,0.07,61.15C407.69,420.56,405.71,398.28,391.15,390.22z"/>
									<g>
										<path class="st6" d="M187.82,390.48c62.62,14.14,190.36,42.2,208.32,42.51c0.3,0.01,0.59,0.01,0.83-0.01
											c5.19-0.24,10.33-6.97,12.82-16.77c3.5-13.77,1.19-30.94-9.99-37.12c-17.65-9.76-153.28-24.3-211.24-29.78l0.17-9.33
											c35.01,3.31,193.86,18.85,215.95,31.06c16.03,8.86,18.8,30.77,14.58,47.37c-3.62,14.26-10.84,23.37-20.68,23.82
											c-0.31,0.01-1.81,0.05-2.2,0.04c-21.28-0.39-159.84-31.25-208.73-42.29L187.82,390.48z"/>
									</g>
									<path class="st4" d="M398.2,382.77l-201.73-30C196.47,352.77,359.68,372.77,398.2,382.77z"/>
									<path class="st4" d="M400.54,388.19l-201.73-30C198.81,358.19,362.02,378.19,400.54,388.19z"/>
									<path class="st4" d="M405.62,394.32l-205.27-31.26C200.35,363.06,367.11,384.33,405.62,394.32z"/>
									<path class="st4" d="M405.75,400.41L200.6,367.18C200.6,367.18,367.23,390.42,405.75,400.41z"/>
									<path class="st4" d="M405.66,405.88l-205.13-34.47C200.53,371.41,367.14,395.88,405.66,405.88z"/>
									<path class="st4" d="M405.56,410.99l-205.1-36.07C200.46,374.93,367.04,400.99,405.56,410.99z"/>
									<path class="st4" d="M403.93,414.61l-203.86-35.74C200.06,378.87,365.41,404.61,403.93,414.61z"/>
									<path class="st4" d="M403.84,419.02l-203.52-36.11C200.32,382.91,365.33,409.02,403.84,419.02z"/>
									<path class="st4" d="M400.85,424.08l-201.4-38.48C199.45,385.61,362.33,414.09,400.85,424.08z"/>
									<path class="st4" d="M397.37,428.54l-199.12-39.57C198.25,388.95,358.85,418.53,397.37,428.54z"/>
								</g>
								<g>
									<path class="st12" d="M622.76,359.51c0,0-136.15,16.62-164.5,20.07c-28.35,3.44-35.16,2.16-34.39,13.45s4.67,11.33,45,6.73
										c40.32-4.61,146.01-22.24,153.58-23.27C630.03,375.45,626.97,359,622.76,359.51z"/>
								</g>
							</g>
							<path class="st2" d="M395.82,403.68c0,0-2.17,23.61-2.26,38.41c-4.51-0.41-18.4-2.6-18.4-2.6S379.46,403.8,395.82,403.68z"/>
							<path class="st13" d="M395.82,403.59c0,0-16.86,9.8-18.69,57.39c-7.66-7.88-12.93-12.87-12.93-12.87l-14.24,7.6
								c0,0,10.18-50.22,21.23-57.09C387.2,400.59,395.82,403.59,395.82,403.59z"/>
						</g>
						<g>
							<g>
								<g>
									<g>
										<g>
											<g>
												<g>
													<path class="st14" d="M425,367.13c0,0-174.74-23.39-187.57-28.1c-12.83-4.69-16.1-41.38-1.43-44.86
														c14.66-3.48,179.81-8.7,179.81-8.7l191.98,9.74L425,367.13z"/>
												</g>
											</g>
											<g>
												<path class="st13" d="M237.43,339.03c12.83,4.7,187.57,28.1,187.57,28.1l86.04-46.35l-85.28-17.47l-195.26-5.43
													C222.55,308.12,226.56,335.05,237.43,339.03z"/>
											</g>
										</g>
										<g>
											<path class="st1" d="M603.07,299.26c-35.65,0.18-162.89,1.37-180.38,9.28c-20.38,9.22-14.41,51.99,2.39,54.31
												c13.61,1.87,132.52-13.44,177.19-19.35L603.07,299.26z"/>
										</g>
										<path class="st2" d="M431.78,322.47c16.2-7.33,126.5-8.89,171.05-9.22l0.25-14c-35.65,0.18-162.89,1.37-180.38,9.28
											c-18.51,8.37-15.29,44.4-1.96,52.7C416.57,347.31,418.98,328.27,431.78,322.47z"/>
										<g>
											<g>
												<path class="st15" d="M606.99,338.8c-54.41,7.22-165.37,21.28-180.85,20.14c-0.27-0.02-0.5-0.05-0.71-0.08
													c-4.46-0.62-8.69-6.83-10.53-15.46c-2.58-12.14-0.07-26.76,9.76-31.2c15.52-7.01,132.85-8.8,182.97-8.94l0.14-8.06
													c-30.28,0.08-167.65,0.89-187.07,9.67c-14.09,6.38-17.16,25.03-14.04,39.67c2.67,12.58,9.6,21.11,18.06,22.28
													c0.28,0.04,0.58,0.07,0.92,0.1c18.36,1.36,138.72-14.28,181.2-19.92L606.99,338.8z"/>
											</g>
										</g>
										<g class="st3">
											<path class="st4" d="M425.93,315.49l174.78-9.88C600.71,305.62,459.44,309.93,425.93,315.49z"/>
											<path class="st4" d="M423.75,319.97l174.78-9.87C598.54,310.1,457.26,314.42,423.75,319.97z"/>
											<path class="st4" d="M419.18,324.87l177.88-10.69C597.06,314.18,452.68,319.3,419.18,324.87z"/>
											<path class="st4" d="M418.87,330.1l177.83-12.4C596.7,317.7,452.39,324.53,418.87,330.1z"/>
											<path class="st4" d="M418.79,334.81l177.85-13.46C596.64,321.35,452.3,329.26,418.79,334.81z"/>
											<path class="st4" d="M418.71,339.23l177.88-14.84C596.58,324.39,452.21,333.67,418.71,339.23z"/>
											<path class="st4" d="M420.01,342.48l176.8-14.65C596.81,327.82,453.52,336.91,420.01,342.48z"/>
											<path class="st4" d="M419.95,346.29l176.52-15C596.46,331.29,453.45,340.72,419.95,346.29z"/>
											<path class="st4" d="M422.36,350.89l174.76-17.22C597.12,333.67,455.87,345.32,422.36,350.89z"/>
											<path class="st4" d="M425.22,355l172.83-18.34C598.05,336.66,458.72,349.44,425.22,355z"/>
										</g>
									</g>
									<g>
										<path class="st15" d="M232.5,301.73c0,0,109.79,10.14,138.54,13.39c24.76,2.8,31.8,1.3,30.79,10.97
											c-1.02,9.67-15.16,7.37-50.29,3.15c-39.01-4.68-112.57-12.75-119.07-14.23C225.95,313.54,228.89,300.95,232.5,301.73z"/>
									</g>
									<g>
										<path class="st16" d="M248.91,341.5c0.26-0.01,0.48-0.18,0.56-0.43c0.1-0.29-0.08-0.6-0.38-0.67
											c-1.87-0.42-7.84-4.23-8.71-8.23c-0.89-4.15-1.96-13.63-2.41-21.56c-0.43-7.52,5.02-10.43,5.25-10.56
											c0.29-0.15,0.41-0.48,0.27-0.75c-0.13-0.27-0.48-0.36-0.77-0.21c-0.07,0.04-6.38,3.37-5.91,11.65
											c0.46,7.98,1.52,17.53,2.43,21.72c0.94,4.34,7.21,8.49,9.5,9.02C248.8,341.5,248.86,341.5,248.91,341.5z"/>
									</g>
									<g>
										<path class="st16" d="M256.43,342.4c0.26-0.01,0.48-0.18,0.56-0.43c0.1-0.29-0.08-0.59-0.39-0.67
											c-1.87-0.42-7.84-4.22-8.7-8.23c-0.89-4.15-1.96-13.63-2.41-21.56c-0.43-7.52,5.03-10.43,5.25-10.56
											c0.29-0.15,0.41-0.48,0.28-0.75c-0.13-0.27-0.48-0.37-0.77-0.22c-0.07,0.03-6.39,3.37-5.91,11.65
											c0.46,7.98,1.52,17.53,2.43,21.72c0.94,4.34,7.22,8.5,9.5,9.02C256.33,342.4,256.39,342.4,256.43,342.4z"/>
									</g>
								</g>
							</g>
							<path class="st2" d="M432.62,328.33c0,0,1.17,24.75,0.77,38.55c4.22-0.23,17.67-1.21,17.67-1.21S447.86,329,432.62,328.33z"
								/>
							<path class="st17" d="M432.62,328.33c0,0,15.35,11.38,15.45,55.77c7.4-7.08,12.49-11.55,12.49-11.55l13.01,7.56
								c0,0-7.79-47.12-17.85-53.89C440.74,327.53,432.62,328.33,432.62,328.33z"/>
						</g>
						<g>
							<g>
								<g>
									<path class="st1" d="M550.65,221.58l-1.14,63.59c0,0-77.41,7.35-94.09,2.57s-8.46-26.41-8.28-36.66
										c0.19-10.24,0.86-35.21,3.66-41.13c2.79-5.93,15.51-3.14,31.14-1.57C497.58,209.95,550.65,221.58,550.65,221.58z"/>
								</g>
								<path class="st2" d="M447.14,251.11c0.19-10.24,0.86-35.21,3.66-41.13c2.79-5.93,15.51-3.14,31.14-1.57
									c15.64,1.56,68.72,13.2,68.72,13.2l-0.19,10.65c-14.28-3.07-51.4-9.22-63.83-10.45c-15.64-1.57-26.66-3.34-29.45,2.59
									c-2.79,5.93-4.09,28.43-4.28,38.67c-0.1,5.63-2.63,14.73-2.11,22.56C440.47,278.35,446.98,260.22,447.14,251.11z"/>
								<g class="st3">
									<g>
										<path class="st4" d="M448.27,210.91l101.54,15.85C549.81,226.76,468.39,211.07,448.27,210.91z"/>
										<path class="st4" d="M444.96,247.46l102.63,5.6C547.58,253.06,464.98,245.74,444.96,247.46z"/>
										<path class="st4" d="M445.04,243.4l102.52,8.15C547.55,251.55,465.09,242.04,445.04,243.4z"/>
										<path class="st4" d="M445.08,240.94l102.52,8.15C547.6,249.09,465.14,239.58,445.08,240.94z"/>
										<path class="st4" d="M445.17,237.71l102.44,9.14C547.61,246.85,465.24,236.54,445.17,237.71z"/>
										<path class="st4" d="M445.34,233.4l102.21,11.22C547.55,244.63,465.44,232.65,445.34,233.4z"/>
										<path class="st4" d="M445.4,230.32l102.21,11.2C547.61,241.52,465.49,229.56,445.4,230.32z"/>
										<path class="st4" d="M445.52,226.53L547.6,238.7C547.61,238.71,465.62,225.96,445.52,226.53z"/>
										<path class="st4" d="M445.58,222.99l102.08,12.17C547.67,235.16,465.69,222.42,445.58,222.99z"/>
										<path class="st4" d="M445.71,219.38l101.94,13.24C547.66,232.62,465.81,219.02,445.71,219.38z"/>
										<path class="st4" d="M445.34,215.36l101.94,13.24C547.28,228.59,465.44,214.99,445.34,215.36z"/>
									</g>
									<g>
										<path class="st4" d="M447.35,281.09l101.14-3.34C548.48,277.76,467.26,283.43,447.35,281.09z"/>
										<path class="st4" d="M445.32,250.51l101.82,4.52C547.13,255.03,465.35,253.64,445.32,250.51z"/>
										<path class="st4" d="M445.29,253.77l101.77,3.53C547.06,257.3,465.12,257.43,445.29,253.77z"/>
										<path class="st4" d="M445.3,258.12l101.63,1.41C546.92,259.52,465.16,261.37,445.3,258.12z"/>
										<path class="st4" d="M445.23,261.23l101.63,1.43C546.86,262.65,465.1,264.48,445.23,261.23z"/>
										<path class="st4" d="M445.21,265.05l101.55,0.43C546.75,265.48,465.09,268.12,445.21,265.05z"/>
										<path class="st4" d="M445.14,268.61l101.55,0.43C546.69,269.05,465.02,271.68,445.14,268.61z"/>
										<path class="st4" d="M445.14,272.27l101.44-0.66C546.57,271.61,465.02,275.13,445.14,272.27z"/>
										<path class="st4" d="M444.6,276.26l101.44-0.66C546.05,275.61,464.5,279.12,444.6,276.26z"/>
									</g>
									<path class="st4" d="M446.48,284.09l102.82-2.68C549.3,281.4,466.43,286.51,446.48,284.09z"/>
								</g>
								<g>
									<g>
										<path class="st17" d="M458.54,200.99c0,0-168.82,21.08-182.63,25.33c-13.81,4.25-12.6,37.94-10.45,50.13
											c2.15,12.19,11.35,15.57,21.21,15.75c9.84,0.18,174.36,1.14,174.36,1.14s-12.83-3.23-15.02-20.41
											c-2.19-17.18,2.44-51.51,3.34-57.34C450.22,209.76,458.54,200.99,458.54,200.99z"/>
									</g>
									<g>
										<path class="st18" d="M442.05,247c0.18-2.6,0.35-5.12,0.48-7.46c0.09-1.56,0.15-3.15,0.22-4.73
											c0.53-12.31,1.07-25.05,8.62-30.92c3.41-2.65,7.77-3.58,12.98-2.77c14.96,2.33,78.13,14.08,91.76,16.63l-0.15,8.67
											c-8.9-1.66-77.71-14.48-93.03-16.87c-3.47-0.53-5.02,0.29-5.88,0.97c-4.43,3.44-4.91,14.72-5.34,24.66
											c-0.07,1.62-0.13,3.22-0.23,4.81c-0.12,2.38-0.43,6.57-0.48,7.59c-0.11,2.19-1.8,33.04,3.53,36.34
											c5.92,2.7,55.45,1.16,100.43-1.91l-0.15,8.57c-17.48,1.19-57.76,3.66-83.22,3.2c-10.47-0.19-18.44-0.87-21.28-2.35
											C439.4,285.8,440.75,266.07,442.05,247z"/>
									</g>
								</g>
							</g>
						</g>
						<g>
							<path class="st19" d="M441.07,207.86c0,0-153.03,20.1-158.55,20.94c-5.53,0.85-6.58,6.07-7.8,10.03
								c-1.22,3.95,3.27,2.38,12.49,1.73s136.9-13.81,143.82-14.59c6.92-0.79,7.97-3.19,9.19-6.77c1.22-3.57,2.96-8.88,2.77-10
								C442.76,208.12,442.24,207.71,441.07,207.86z"/>
						</g>
						<g>
							<path class="st20" d="M429.72,292.75c0.26,0.01,0.5-0.1,0.66-0.32c0.25-0.34,0.15-0.8-0.2-1.05
								c-1.33-0.88-6.33-9.18-6.58-18.02c-0.24-8.62,0.12-28.15,0.8-44.48c0.67-15.86,6.2-21.56,6.25-21.62
								c0.29-0.29,0.29-0.77-0.02-1.05c-0.31-0.29-0.81-0.28-1.1,0.01c-0.25,0.24-6,6.08-6.69,22.59
								c-0.68,16.34-1.04,35.93-0.8,44.57c0.24,8.82,5.26,17.9,7.24,19.21C429.42,292.7,429.57,292.75,429.72,292.75z"/>
						</g>
						<g>
							<path class="st20" d="M421.01,293.44c0.26,0.01,0.5-0.1,0.66-0.32c0.25-0.34,0.16-0.8-0.2-1.04
								c-1.33-0.88-6.33-9.18-6.58-18.02c-0.23-8.62,0.12-28.15,0.81-44.47c0.67-15.86,6.2-21.56,6.24-21.62
								c0.3-0.29,0.29-0.77-0.02-1.05c-0.3-0.29-0.8-0.28-1.1,0.02c-0.25,0.24-6,6.08-6.69,22.59c-0.68,16.34-1.04,35.93-0.8,44.57
								c0.24,8.82,5.26,17.9,7.25,19.21C420.72,293.39,420.86,293.44,421.01,293.44z"/>
						</g>
					</g>
				</g>
				<g>
					<g>
						<g>
							<g>
								<path class="st10" d="M367.16,319.67c0,0-42.4,26.59-67.03,99.15c4.93,11.97-2.77,27.12-18.98,20.54
									c-11.25-3.03-73.65-20.81-118.19,34.91c-63.98-27.11-137.07-52.84-137.07-52.84s-2.58-7.58-2.11-7.91
									c2.02-1.38,10.59,3.97,15,2.08c25.25-10.86,81.7-32.37,115.86-24.2c13.34,3.09,20.49,1.16,20.63-6.19
									c0.13-7.34,23.99-68.91,41.71-84.58c43.13,1.21,111.05,15.65,137.85,16.53c0.95,0.03,7.34-6.01,9.09-5.7
									C365.08,311.66,367.16,319.67,367.16,319.67z"/>
								<path class="st9" d="M363.94,311.46c0,0-46.28,31.83-70.91,104.4c4.92,11.97-0.33,22.52-16.54,15.95
									c-11.25-3.03-73.07-15.93-116.62,35.1c-63.98-27.11-136.08-53.39-136.08-53.39s79.87-39.69,124.89-28.92
									c13.34,3.09,20.49,1.16,20.63-6.19c0.13-7.34,23.99-68.91,41.72-84.58C264.99,295.34,363.94,311.46,363.94,311.46z"/>
							</g>
							<g>
								<path class="st21" d="M209.74,282.69l131.88,11.16c4.79,16.16-54.74,93.3-54.74,93.3s-3.23,10.48-11.46,26.27l-113.88-35.19
									C174.71,326.79,209.74,282.69,209.74,282.69z"/>
							</g>
							<path class="st22" d="M161.45,378.57c0.03-0.11,0.06-0.23,0.1-0.35l113.88,35.19c-0.22,0.41-0.42,0.81-0.64,1.22
								c-61.64-12.66-118.89,28.7-118.89,28.7s-28.23-9.64-135.52-52.84C48.28,377.41,138.17,372.55,161.45,378.57z"/>
							<path class="st23" d="M153.4,433.88l0.06,0.02c0,0,48.7-38.52,118.68-21.75c8.86-35.08,46.99-108.56,69.48-118.3
								c6.95,5.74,15.52,12.14,15.52,12.14s-51.28,45.99-67.29,108.91c-11.21-0.67-16.91,11.55-16.91,11.55s-37.89-8.7-67.61-0.04
								s-48.76,33.38-48.76,33.38l-0.38-0.14L21.62,408.41l-1.24-17.92L153.4,433.88z"/>
							<path class="st24" d="M153.47,433.9c0,0,48.7-38.52,118.68-21.75c8.86-35.08,46.99-108.56,69.48-118.3
								c6.95,5.74,15.52,12.14,15.52,12.14s-51.28,45.99-67.29,108.91c-11.21-0.67-16.91,11.55-16.91,11.55s-37.89-8.7-67.61-0.04
								s-48.76,33.38-48.76,33.38l-0.38-0.14l-2.78-25.77L153.47,433.9z"/>
						</g>
						<path class="st1" d="M272.12,413.35c0,0-50.3-22.18-118.51,9.19C82.04,401.29,26,382.44,26,382.44s76.51-19.3,135.44-3.88
							C220.4,393.99,266.32,409.34,272.12,413.35z"/>
						<path class="st25" d="M272.14,412.16c0,0-2.92-70.09,50.03-128.28c-33.53-4.54-129.79-7.99-129.79-7.99
							s-32.53,56.2-30.92,102.69C213.34,392.75,272.14,412.16,272.14,412.16z"/>
					</g>
					<path class="st8" d="M151.81,376.38c0,0,90.03,25.83,109.31,33.55c19.28,7.72,17.14,53.89,17.14,53.89l8.57-11.86l7.7,7.52
						c0,0-2.67-38.41-21.1-51.96C254.98,393.96,169.17,376.63,151.81,376.38z"/>
				</g>
			</g>
		</g>
	</g>
</g>
</svg>
