<?xml version="1.0" encoding="utf-8"?>
<!-- Generator: Adobe Illustrator 25.0.0, SVG Export Plug-In . SVG Version: 6.00 Build 0)  -->
<svg version="1.1" id="Capa_1" xmlns="http://www.w3.org/2000/svg" xmlns:xlink="http://www.w3.org/1999/xlink" x="0px" y="0px"
	 viewBox="0 0 470 340" style="enable-background:new 0 0 470 340;" xml:space="preserve">
<style type="text/css">
	.st0{fill:url(#SVGID_1_);}
	.st1{clip-path:url(#SVGID_3_);fill:url(#SVGID_4_);}
	.st2{clip-path:url(#SVGID_3_);fill:url(#SVGID_5_);}
	.st3{clip-path:url(#SVGID_3_);fill:url(#SVGID_6_);}
	.st4{clip-path:url(#SVGID_3_);fill:url(#SVGID_7_);}
	.st5{clip-path:url(#SVGID_3_);fill:url(#SVGID_8_);}
	.st6{clip-path:url(#SVGID_3_);fill:url(#SVGID_9_);}
	.st7{clip-path:url(#SVGID_3_);fill:url(#SVGID_10_);}
	.st8{clip-path:url(#SVGID_3_);fill:url(#SVGID_11_);}
	.st9{fill:#FFC779;}
	.st10{fill:#EED7B9;}
	.st11{fill:#3A415F;}
	.st12{fill:#FF927C;}
	.st13{fill:#C5C5C5;}
</style>
<g>
	
		<radialGradient id="SVGID_1_" cx="409.9052" cy="64.1227" r="238.3656" gradientTransform="matrix(0.6716 -0.7409 0.7409 0.6716 -34.0071 380.2954)" gradientUnits="userSpaceOnUse">
		<stop  offset="0" style="stop-color:#5EB1BF"/>
		<stop  offset="1" style="stop-color:#004FD8"/>
	</radialGradient>
	<path class="st0" d="M226.3,35c24.28,5.93,48.36,19.47,52.19,46.7c2.48,17.64-7.04,36.95-23.52,43.69
		c-12.25,5.01-26.27,2.98-39.07,6.36c-16.52,4.37-29.45,17.36-38.92,31.57c-9.48,14.21-16.33,30.04-25.83,44.24
		c-4.17,6.24-9.04,12.31-15.65,15.85c-6.3,3.36-13.66,4.14-20.8,3.94c-6.92-0.19-14.01-1.3-19.93-4.88
		c-5.37-3.24-9.45-8.36-12.17-14.01c-7.48-15.52-4.89-34.08,0.84-50.32c5.68-16.1,15.28-31.3,18.98-48.01
		c3.9-17.63,2.56-36.51-0.74-54.11c-1.76-9.38-3.27-19.06-1.42-28.42c1.85-9.37,7.74-18.48,16.74-21.64
		c4.92-1.73,10.35-1.56,15.46-0.48c11.36,2.4,21.31,9.02,31.93,13.72C184.05,27.9,205.6,29.95,226.3,35z"/>
	<g>
		<defs>
			
				<ellipse id="SVGID_2_" transform="matrix(0.7071 -0.7071 0.7071 0.7071 -39.1956 216.131)" cx="241.3" cy="155.38" rx="150.7" ry="150.7"/>
		</defs>
		<clipPath id="SVGID_3_">
			<use xlink:href="#SVGID_2_"  style="overflow:visible;"/>
		</clipPath>
		
			<radialGradient id="SVGID_4_" cx="383.9755" cy="-316.8266" r="210.5135" gradientTransform="matrix(-0.3128 0.9498 0.9498 0.3128 668.2249 126.4057)" gradientUnits="userSpaceOnUse">
			<stop  offset="0" style="stop-color:#5EB1BF"/>
			<stop  offset="1" style="stop-color:#004FD8"/>
		</radialGradient>
		<path class="st1" d="M140.41,244.56c-12.6,9.79-27.93,15.73-43.46,20.49c-7.37,2.26-15.47,4.86-19.47,11.45
			c-3.62,5.98-2.7,13.94,0.9,19.94c3.6,6,9.47,10.3,15.6,13.64c14.29,7.8,30.52,11.21,46.6,13.69c12.18,1.88,24.53,3.3,36.82,2.33
			c12.29-0.98,24.6-4.48,34.61-11.67c17.34-12.47,25.58-34.36,27.83-55.6c1.48-14.01,0.77-28.11,0.16-42.14
			c-0.62-14.13-1.34-27.29-4.6-41.13c-1.29-5.49-3.02-11.22-7.16-15.07c-5.43-5.06-14-5.59-20.9-2.87c-6.9,2.72-12.38,8.17-16.96,14
			c-14.16,18-22.23,39.86-35.71,58.33C150.53,235.64,145.71,240.44,140.41,244.56z"/>
		
			<radialGradient id="SVGID_5_" cx="1003.9993" cy="968.2544" r="218.0995" gradientTransform="matrix(-0.0407 -0.9991 -0.9991 0.0407 1187.0054 1036.4198)" gradientUnits="userSpaceOnUse">
			<stop  offset="0" style="stop-color:#00C6BF"/>
			<stop  offset="1" style="stop-color:#0067D3"/>
		</radialGradient>
		<path class="st2" d="M316.84,169.96c7.19-15.6,10.19-34.35-2.82-48.05c-8.43-8.87-22.89-12.01-33.57-6.02
			c-7.94,4.45-12.83,12.87-20.13,18.31c-9.41,7.02-21.93,8.43-33.63,7.45c-11.7-0.97-23.15-4.05-34.85-5.01
			c-5.14-0.42-10.49-0.4-15.22,1.65c-4.5,1.95-8.07,5.58-11.01,9.51c-2.85,3.8-5.29,8.09-5.9,12.81c-0.55,4.27,0.46,8.65,2.34,12.54
			c5.16,10.66,16.25,17.2,27.44,21.05c11.09,3.82,23.37,5.16,33.95,10.31c11.16,5.44,20.74,14.22,28.81,23.53
			c4.3,4.96,8.86,9.91,14.69,12.91c5.83,3,13.25,3.73,18.81,0.24c3.03-1.91,5.26-4.9,6.86-8.11c3.57-7.14,4.26-15.32,6.27-23.05
			C302.61,195.74,310.72,183.27,316.84,169.96z"/>
		
			<radialGradient id="SVGID_6_" cx="582.8755" cy="-338.0717" r="93.8764" gradientTransform="matrix(-0.3467 0.938 -0.938 -0.3467 195.447 -570.4413)" gradientUnits="userSpaceOnUse">
			<stop  offset="0" style="stop-color:#5EB1BF"/>
			<stop  offset="1" style="stop-color:#004FD8"/>
		</radialGradient>
		<path class="st3" d="M396.32,51.65c-0.67-3.56-2.15-6.89-4.77-9.34c-5.18-4.85-13.54-4.88-19.96-1.87
			c-9.43,4.42-14.92,13.64-21.9,20.9c-7.87,8.2-21.71,8.9-27.53,19.15c-3.59,6.32-2.32,14.28,0.16,21.1
			c4.1,11.27,11.12,21.23,18.56,30.65c11.38,14.4,24.6,28.15,43.7,30.65c4.16,0.54,8.74,0.45,12.11-2.05
			c3.84-2.86,5.08-8.23,4.3-12.96c-0.78-4.72-3.23-8.98-5.6-13.14c-4.84-8.51-9.63-17.48-10.22-27.25
			c-1-16.53,10.1-31.53,11.5-48.04C396.87,56.88,396.8,54.2,396.32,51.65z"/>
		<radialGradient id="SVGID_7_" cx="282.5228" cy="286.5521" r="12.0251" gradientUnits="userSpaceOnUse">
			<stop  offset="0" style="stop-color:#5EB1BF"/>
			<stop  offset="1" style="stop-color:#004FD8"/>
		</radialGradient>
		<path class="st4" d="M270.5,286.55c0-6.64,5.38-12.03,12.03-12.03c6.64,0,12.02,5.39,12.02,12.03c0,6.64-5.38,12.02-12.02,12.02
			C275.88,298.58,270.5,293.19,270.5,286.55z"/>
		<radialGradient id="SVGID_8_" cx="332.7197" cy="226.3737" r="11.6654" gradientUnits="userSpaceOnUse">
			<stop  offset="0" style="stop-color:#5EB1BF"/>
			<stop  offset="1" style="stop-color:#004FD8"/>
		</radialGradient>
		<path class="st5" d="M321.06,226.37c0-6.44,5.22-11.67,11.66-11.67c6.44,0,11.67,5.22,11.67,11.67c0,6.44-5.22,11.67-11.67,11.67
			C326.28,238.04,321.06,232.82,321.06,226.37z"/>
		<radialGradient id="SVGID_9_" cx="142.5474" cy="181.9427" r="7.7517" gradientUnits="userSpaceOnUse">
			<stop  offset="0" style="stop-color:#5EB1BF"/>
			<stop  offset="1" style="stop-color:#004FD8"/>
		</radialGradient>
		<path class="st6" d="M134.8,181.95c0-4.28,3.47-7.76,7.75-7.76c4.28,0,7.75,3.47,7.75,7.76c0,4.28-3.47,7.75-7.75,7.75
			C138.27,189.69,134.8,186.23,134.8,181.95z"/>
		<radialGradient id="SVGID_10_" cx="322.5146" cy="260.9952" r="8.0528" gradientUnits="userSpaceOnUse">
			<stop  offset="0" style="stop-color:#5EB1BF"/>
			<stop  offset="1" style="stop-color:#004FD8"/>
		</radialGradient>
		<path class="st7" d="M314.46,261c0-4.45,3.61-8.06,8.05-8.06c4.45,0,8.05,3.61,8.05,8.06c0,4.45-3.61,8.05-8.05,8.05
			C318.07,269.05,314.46,265.44,314.46,261z"/>
		<radialGradient id="SVGID_11_" cx="310.947" cy="56.973" r="13.7894" gradientUnits="userSpaceOnUse">
			<stop  offset="0" style="stop-color:#5EB1BF"/>
			<stop  offset="1" style="stop-color:#004FD8"/>
		</radialGradient>
		<path class="st8" d="M297.16,56.97c0-7.62,6.17-13.79,13.79-13.79c7.62,0,13.79,6.18,13.79,13.79c0,7.61-6.17,13.79-13.79,13.79
			C303.33,70.76,297.16,64.59,297.16,56.97z"/>
	</g>
	<g>
		<polygon class="st9" points="181.58,132.32 267.26,335.64 317.16,315.35 227.1,113.81 		"/>
		<path class="st10" d="M181.58,132.32c0,0,4.04,6.45,10.2,3.71c6.16-2.73,5.28-8.39,5.28-8.39s3.89,5.58,11.03,4.07
			c7.14-1.52,5.03-10.01,5.03-10.01s6.01,6.04,10.67,3.77c4.66-2.27,3.3-11.65,3.3-11.65l-38.11-42.5l-7.87,5.28L181.58,132.32z"/>
		<path class="st11" d="M181.11,76.59l0.19,22.53c0,0,15.24-0.43,22.1-11.74l-14.41-16.07L181.11,76.59z"/>
		<polygon class="st12" points="257.38,312.13 267.26,335.64 317.16,315.35 304.26,286.55 		"/>
		<polygon class="st13" points="249.23,292.76 299.12,275.06 304.26,286.55 257.38,312.13 		"/>
		<path class="st11" d="M260.73,287.24l-24.48-61.42c-8.13-20.41-16.27-40.82-24.4-61.22c-4.58-11.49-9.15-22.97-13.73-34.45
			c-0.41-1.01-2.05-0.38-1.64,0.63c8.16,20.47,16.32,40.95,24.48,61.42c8.13,20.41,16.27,40.82,24.4,61.23
			c4.57,11.48,9.15,22.97,13.73,34.45C259.49,288.88,261.13,288.25,260.73,287.24"/>
		<path class="st11" d="M283.13,279.48l-25.98-61.31c-8.66-20.44-17.32-40.87-25.98-61.31c-4.85-11.45-9.71-22.9-14.56-34.36
			c-0.43-1-2.07-0.38-1.64,0.63l25.97,61.31c8.66,20.44,17.32,40.87,25.97,61.31l14.56,34.36
			C281.91,281.12,283.56,280.49,283.13,279.48"/>
		<path class="st11" d="M299.07,279.14c-15.93,5.71-31.85,11.43-47.78,17.14c-1.06,0.38-0.42,1.95,0.65,1.57l47.78-17.14
			C300.78,280.33,300.14,278.76,299.07,279.14"/>
		<path class="st11" d="M302.32,283.33c-15.89,6.41-31.44,13.59-46.59,21.52c-0.99,0.52-0.36,2.1,0.64,1.57
			c15.14-7.93,30.69-15.11,46.59-21.52C304.02,284.48,303.38,282.91,302.32,283.33"/>
	</g>
</g>
</svg>
